<?xml version="1.0" standalone="no"?>
<!DOCTYPE svg PUBLIC "-//W3C//DTD SVG 20010904//EN"
 "http://www.w3.org/TR/2001/REC-SVG-20010904/DTD/svg10.dtd">
<svg version="1.0" xmlns="http://www.w3.org/2000/svg"
 width="512.000000pt" height="512.000000pt" viewBox="0 0 512.000000 512.000000"
 preserveAspectRatio="xMidYMid meet">

<g transform="translate(0.000000,512.000000) scale(0.100000,-0.100000)"
fill="#000000" stroke="none">
<path d="M2321 5110 c-438 -43 -858 -196 -1217 -446 -100 -69 -115 -93 -90
-143 30 -58 68 -55 164 13 547 383 1233 521 1892 380 888 -189 1604 -882 1825
-1764 178 -710 31 -1443 -410 -2038 -102 -137 -340 -375 -477 -477 -738 -546
-1687 -637 -2503 -239 -254 123 -435 254 -645 464 -318 317 -529 685 -634
1105 -206 823 18 1660 606 2271 87 91 98 122 55 162 -45 42 -79 31 -163 -55
-385 -395 -624 -891 -706 -1468 -17 -119 -16 -512 1 -635 105 -762 511 -1409
1146 -1826 609 -400 1377 -517 2090 -317 929 260 1646 1043 1819 1987 156 845
-103 1682 -705 2285 -399 398 -880 639 -1449 726 -125 19 -467 27 -599 15z"/>
<path d="M2370 4814 c-426 -52 -731 -157 -1030 -352 -556 -363 -916 -919
-1017 -1572 -25 -158 -24 -499 0 -660 77 -501 311 -954 673 -1299 355 -339
775 -542 1269 -613 136 -19 484 -16 625 5 497 78 916 290 1265 641 362 363
573 789 647 1301 19 136 16 484 -5 625 -77 494 -288 912 -636 1261 -140 140
-221 207 -367 302 -269 176 -576 294 -894 342 -100 15 -455 28 -530 19z m385
-154 c966 -91 1741 -825 1892 -1792 23 -151 23 -470 0 -617 -74 -457 -278
-862 -597 -1181 -321 -321 -727 -526 -1182 -597 -151 -23 -470 -23 -617 0
-690 111 -1264 527 -1576 1143 -212 419 -275 901 -180 1372 211 1042 1197
1772 2260 1672z"/>
<path d="M2430 4420 c-498 -31 -999 -291 -1313 -680 -404 -501 -526 -1161
-326 -1765 219 -661 786 -1143 1478 -1256 248 -40 560 -22 796 46 704 204
1217 780 1336 1500 25 154 27 405 4 559 -47 317 -164 600 -352 852 -55 75 -83
91 -126 75 -21 -8 -30 -2 -79 52 -47 54 -54 65 -45 84 18 41 -9 77 -121 160
-132 98 -202 140 -334 202 -283 133 -595 191 -918 171z m530 -880 c36 -18 80
-66 80 -88 0 -17 42 -63 66 -72 16 -6 37 -4 65 5 97 35 190 5 237 -73 22 -39
26 -57 25 -111 -2 -57 1 -67 25 -91 16 -16 43 -29 68 -33 76 -12 144 -78 158
-152 14 -75 -36 -165 -114 -205 -54 -27 -65 -66 -40 -131 34 -85 24 -157 -28
-212 -53 -56 -127 -73 -204 -48 -35 11 -98 70 -98 91 0 5 -14 17 -32 26 -27
14 -39 15 -84 5 -40 -9 -63 -9 -96 -1 -97 27 -138 86 -138 200 0 39 -5 80 -10
91 -6 10 -32 30 -58 43 -56 29 -86 59 -107 108 -30 74 -13 142 55 209 33 33
40 46 40 79 0 21 -5 42 -11 46 -6 3 -24 27 -40 52 -33 52 -40 133 -15 180 15
29 59 73 91 90 33 19 122 14 165 -8z m-437 -676 c22 -72 68 -138 122 -176 39
-28 43 -34 49 -87 7 -65 46 -154 83 -193 l25 -27 -21 -30 c-35 -49 -101 -99
-160 -123 -43 -16 -79 -22 -154 -22 -91 -1 -100 -3 -118 -25 -24 -29 -46 -24
-111 24 -47 34 -47 34 -32 64 14 29 13 34 -28 118 -40 82 -43 92 -43 173 0 72
4 94 29 147 55 121 184 208 311 212 29 1 32 -3 48 -55z"/>
</g>
</svg>
